<?xml version="1.0" standalone="no"?>
<!DOCTYPE svg PUBLIC "-//W3C//DTD SVG 20010904//EN"
 "http://www.w3.org/TR/2001/REC-SVG-20010904/DTD/svg10.dtd">
<svg version="1.0" xmlns="http://www.w3.org/2000/svg"
 width="900.000000pt" height="900.000000pt" viewBox="0 0 900.000000 900.000000"
 preserveAspectRatio="xMidYMid meet">
<metadata>
Created by potrace 1.11, written by Peter Selinger 2001-2013
</metadata>
<g transform="translate(0.000000,900.000000) scale(0.100000,-0.100000)"
fill="#000000" stroke="none">
<path d="M0 4500 l0 -4500 4500 0 4500 0 0 4500 0 4500 -4500 0 -4500 0 0
-4500z m1467 778 c-31 -24 -37 -68 -37 -257 0 -221 -10 -271 -69 -330 -53 -53
-105 -65 -234 -56 -56 3 -117 7 -134 8 l-33 0 0 72 0 72 52 -26 c67 -33 185
-42 223 -17 51 34 59 66 63 259 4 199 1 234 -29 265 l-20 22 118 0 c95 0 114
-2 100 -12z m1721 -5 c-1 -15 167 -446 192 -492 5 -9 14 3 28 40 11 30 57 142
102 249 44 107 78 200 75 207 -3 10 26 13 131 13 l135 0 -20 -26 c-20 -26 -21
-39 -21 -299 0 -260 1 -273 21 -299 l20 -26 -105 0 c-58 0 -106 3 -106 7 0 3
8 15 18 26 15 17 17 47 20 260 2 133 1 239 -2 236 -15 -14 -218 -487 -218
-506 0 -22 -5 -23 -74 -23 -56 0 -74 3 -74 14 0 11 -166 417 -210 511 -13 29
-13 -436 0 -471 6 -15 18 -33 28 -40 14 -11 0 -13 -91 -14 l-107 0 20 37 c19
35 20 57 20 293 0 237 -2 257 -20 288 l-20 32 130 0 c116 0 129 -2 128 -17z
m-1061 -168 c104 -31 159 -96 170 -200 13 -122 -56 -227 -171 -260 -138 -40
-281 2 -341 99 -26 44 -30 58 -30 125 0 88 25 144 86 193 66 53 189 72 286 43z
m3983 4 c65 -14 129 -62 158 -119 19 -38 23 -57 20 -121 -3 -64 -8 -83 -33
-125 -101 -163 -419 -146 -491 25 -18 43 -20 154 -4 196 46 120 188 179 350
144z m-1574 -8 c-7 -10 168 -408 189 -432 8 -8 15 -19 15 -22 0 -4 -39 -7 -86
-7 -81 0 -85 1 -79 20 4 11 4 34 0 50 l-7 30 -134 0 -134 0 -6 -25 c-3 -14 -3
-36 0 -50 l6 -25 -91 0 c-88 0 -91 1 -76 18 26 28 219 431 212 442 -4 6 30 10
95 10 57 0 99 -4 96 -9z m659 -21 c-12 -22 -15 -65 -15 -190 l0 -160 108 0
c94 0 115 3 155 24 26 13 47 23 47 22 0 0 -9 -25 -21 -55 -11 -30 -18 -60 -15
-67 4 -12 -33 -14 -210 -14 l-215 0 15 22 c13 18 16 57 16 213 0 156 -3 195
-16 213 l-15 22 91 0 91 0 -16 -30z m1720 -146 c50 -97 94 -178 99 -181 4 -3
7 67 5 155 -4 140 -6 163 -23 181 l-19 21 87 0 86 0 -15 -24 c-13 -20 -15 -57
-13 -235 l3 -211 -92 0 c-77 0 -93 3 -93 15 0 13 -173 340 -188 355 -2 3 -2
-70 0 -163 4 -143 8 -170 23 -187 18 -20 17 -20 -75 -20 l-93 0 19 21 c17 19
19 38 19 214 0 176 -2 195 -19 214 l-19 21 109 0 109 0 90 -176z m1093 119 c6
-31 10 -58 8 -60 -1 -2 -19 4 -39 12 -26 11 -73 15 -172 15 l-135 0 0 -51 0
-51 130 4 c72 2 130 1 130 -2 0 -3 -11 -22 -25 -43 l-26 -37 -104 0 -105 0 0
-55 0 -55 138 0 c115 0 144 4 181 20 24 11 46 19 48 16 2 -2 -5 -25 -15 -52
-11 -27 -17 -55 -15 -61 4 -10 -49 -13 -242 -13 l-246 0 15 22 c13 18 16 57
16 213 0 156 -3 195 -16 213 l-15 22 238 0 239 0 12 -57z m-4776 -1015 c-8 -8
-12 -53 -12 -135 l0 -123 73 0 c39 1 88 7 108 14 l35 12 -10 -38 -10 -38 -143
0 c-139 0 -143 1 -133 19 5 11 10 74 10 141 0 67 -5 130 -10 141 -10 18 -7 19
47 19 44 0 54 -3 45 -12z m628 -73 c68 -35 79 -140 22 -198 -35 -34 -105 -50
-158 -35 -38 10 -80 55 -89 96 -9 44 15 103 54 129 41 28 126 31 171 8z m420
-82 l61 -98 -3 98 -3 97 34 0 c26 0 32 -3 27 -16 -3 -9 -6 -65 -6 -125 l0
-109 -34 0 c-32 0 -38 6 -100 101 l-66 102 0 -90 c0 -56 4 -93 12 -101 9 -9 3
-12 -27 -12 l-40 0 0 125 0 125 41 0 42 0 62 -97z m538 82 c99 -40 96 -179 -4
-221 -19 -8 -68 -14 -111 -14 l-78 0 0 125 0 125 77 0 c46 0 93 -6 116 -15z
m533 -23 c54 -60 44 -147 -22 -195 -36 -26 -126 -27 -170 -1 -49 29 -69 89
-49 146 23 65 68 91 149 86 56 -4 67 -8 92 -36z m395 -59 c66 -109 69 -108 62
24 l-3 73 33 0 c27 0 33 -3 28 -16 -3 -9 -6 -65 -6 -125 l0 -109 -37 0 c-37 1
-40 3 -98 97 -67 107 -70 106 -63 -24 l3 -73 -30 0 -30 0 0 125 0 125 41 0 41
0 59 -97z"/>
<path d="M1973 5024 c-35 -8 -81 -61 -89 -100 -11 -60 1 -132 26 -159 31 -33
83 -49 136 -41 89 12 124 57 124 161 0 60 -3 68 -32 101 -29 30 -40 35 -88 39
-30 2 -65 1 -77 -1z"/>
<path d="M5951 5012 c-52 -26 -74 -63 -78 -129 -5 -72 17 -121 67 -145 79 -40
170 -13 208 62 27 54 28 101 3 156 -31 69 -125 95 -200 56z"/>
<path d="M4415 4997 c-8 -21 -27 -63 -40 -94 -14 -30 -25 -59 -25 -64 0 -5 39
-9 86 -9 99 0 96 -10 34 123 l-39 82 -16 -38z"/>
<path d="M3715 3915 c-31 -30 -33 -82 -4 -119 28 -35 95 -37 127 -3 29 31 30
99 2 127 -29 29 -94 27 -125 -5z"/>
<path d="M4680 3855 l0 -85 45 0 c55 0 90 15 104 47 32 71 -15 123 -110 123
l-39 0 0 -85z"/>
<path d="M5186 3919 c-34 -27 -37 -98 -6 -129 31 -31 102 -28 129 6 46 59 11
144 -58 144 -24 0 -49 -8 -65 -21z"/>
</g>
</svg>
